<?xml version="1.0" standalone="no"?>
<!DOCTYPE svg PUBLIC "-//W3C//DTD SVG 20010904//EN"
 "http://www.w3.org/TR/2001/REC-SVG-20010904/DTD/svg10.dtd">
<svg version="1.0" xmlns="http://www.w3.org/2000/svg"
 width="571.000000pt" height="713.000000pt" viewBox="0 0 571.000000 713.000000"
 preserveAspectRatio="xMidYMid meet">

<g transform="translate(0.000000,713.000000) scale(0.100000,-0.100000)"
fill="#000000" stroke="none">
<path d="M3485 5603 c-406 -53 -420 -64 -563 -410 l-77 -188 -38 -3 c-32 -3
-39 -8 -53 -40 -9 -20 -16 -48 -16 -62 0 -14 -3 -27 -7 -30 -3 -3 -34 -48 -68
-100 -68 -103 -146 -189 -157 -171 -4 6 -2 28 3 48 l10 38 -24 -28 c-14 -15
-25 -35 -25 -43 0 -8 -6 -14 -14 -14 -9 0 -17 16 -22 43 -5 34 -8 38 -15 22
-4 -11 -8 -39 -8 -62 -1 -28 -6 -43 -13 -43 -42 1 -110 26 -157 56 -68 45
-124 65 -162 57 -21 -4 -36 0 -51 13 -12 11 -18 13 -14 6 5 -8 -8 -27 -38 -53
-26 -23 -58 -61 -72 -85 -23 -39 -28 -43 -47 -33 -12 7 -30 18 -39 26 -16 14
-16 18 -1 47 27 52 62 92 104 121 23 14 38 29 35 32 -14 15 -98 -32 -147 -82
-30 -30 -56 -55 -59 -55 -3 0 -14 7 -24 15 -19 14 -19 17 -3 69 19 60 101 161
120 149 7 -3 3 3 -7 15 -28 33 -135 31 -239 -4 -93 -31 -97 -44 -5 -16 81 25
159 36 198 27 l31 -7 -45 -29 c-47 -32 -98 -99 -116 -154 -8 -25 -18 -34 -42
-39 -47 -9 -48 -8 -48 28 0 47 18 95 52 139 34 43 23 49 -21 11 -37 -31 -75
-93 -91 -151 -12 -38 -29 -52 -64 -53 -10 0 -2 125 9 153 4 9 3 17 -3 17 -16
0 -52 -96 -52 -138 0 -36 -3 -41 -31 -51 -58 -20 -62 -17 -56 42 3 28 8 62 12
75 4 12 3 22 -2 22 -15 0 -44 -70 -50 -122 -5 -41 -11 -51 -34 -63 -15 -8 -30
-15 -34 -15 -3 0 -5 34 -5 76 0 41 -4 73 -9 70 -12 -8 -34 -122 -28 -146 4
-14 -4 -27 -26 -45 -28 -21 -33 -22 -41 -8 -5 9 -6 40 -3 69 3 30 2 54 -3 54
-14 0 -30 -70 -30 -131 0 -45 -4 -60 -23 -77 -13 -12 -27 -22 -31 -22 -5 0 -5
27 -2 61 5 37 4 59 -2 55 -14 -8 -32 -88 -32 -139 0 -27 -6 -49 -15 -57 -13
-11 -15 -8 -15 21 0 55 17 140 39 200 25 66 73 119 139 154 26 14 36 23 22 19
-97 -25 -183 -116 -204 -215 l-6 -26 -128 -5 c-119 -5 -133 -8 -214 -43 l-87
-37 62 -47 c116 -88 169 -149 221 -257 62 -126 138 -205 250 -258 88 -42 132
-53 285 -71 99 -12 118 -17 150 -43 20 -16 81 -63 137 -105 116 -89 138 -111
151 -152 8 -24 16 -31 41 -33 26 -3 32 -8 32 -27 0 -13 10 -31 21 -39 20 -13
23 -29 31 -158 5 -79 12 -194 16 -256 5 -81 4 -125 -5 -155 -7 -23 -13 -58
-13 -78 0 -33 -11 -46 -173 -195 -95 -87 -246 -240 -334 -339 -89 -99 -176
-196 -193 -215 -40 -45 -57 -84 -61 -140 -3 -44 -2 -45 25 -43 39 3 262 116
514 262 117 68 216 120 219 117 4 -3 0 -25 -7 -48 -18 -59 -117 -156 -198
-195 -79 -38 -68 -53 37 -53 105 0 256 39 372 95 89 44 94 45 97 25 3 -18 8
-20 35 -15 70 14 194 60 248 91 67 40 69 40 69 14 0 -33 44 -25 212 44 124 50
170 74 222 116 36 30 66 61 67 69 6 134 11 197 18 204 5 5 139 -68 297 -161
159 -93 377 -217 485 -275 232 -125 528 -262 541 -249 15 15 -4 93 -31 125
-107 132 -255 287 -407 428 -184 171 -252 228 -481 407 -153 119 -143 94 -115
285 l17 118 214 193 214 194 58 -5 59 -6 0 36 c0 27 5 37 21 42 11 4 23 4 27
1 11 -12 60 45 55 64 -5 20 25 69 42 70 6 0 22 13 35 30 14 16 29 29 33 30 5
0 14 6 21 13 8 6 38 32 67 57 30 25 74 64 99 86 44 41 48 42 177 63 141 22
311 71 354 102 44 31 172 168 201 214 15 23 30 59 34 80 14 77 120 203 221
263 35 20 61 42 60 47 -6 19 -68 54 -120 66 -29 7 -128 15 -221 18 l-170 6
-18 104 c-36 205 -149 473 -236 564 -26 27 -85 72 -132 100 l-85 52 -310 1
c-301 2 -318 1 -570 -33z m855 -22 c123 -46 245 -185 309 -351 18 -45 31 -84
29 -86 -2 -2 -29 14 -60 35 -31 21 -72 47 -91 58 -29 17 -35 28 -40 67 -8 56
-49 143 -89 188 -19 22 -27 26 -22 13 40 -108 54 -155 54 -186 l0 -35 -71 23
c-40 13 -77 23 -85 23 -7 0 -15 14 -19 30 -10 44 -80 144 -126 181 -47 37 -60
33 -25 -8 31 -37 74 -121 82 -160 l6 -28 -94 3 -93 3 -34 65 c-21 41 -54 83
-89 114 -68 61 -99 67 -47 9 38 -42 95 -151 95 -180 0 -13 -16 -20 -67 -28
-38 -7 -75 -14 -84 -17 -11 -3 -27 14 -52 54 -20 33 -54 75 -76 95 -36 32
-129 87 -148 87 -4 0 19 -23 50 -51 57 -50 92 -100 121 -171 l16 -37 -58 -16
c-31 -9 -64 -18 -73 -21 -12 -3 -25 9 -42 38 -50 85 -150 167 -230 189 -54 14
-56 6 -4 -25 59 -34 135 -119 162 -181 l22 -49 -39 -18 -39 -17 -57 38 c-76
51 -132 71 -214 78 -74 6 -97 -10 -30 -21 61 -9 153 -61 206 -115 l50 -51 -29
-59 -28 -60 -50 39 c-68 55 -145 89 -216 96 l-60 7 20 51 c32 80 95 188 138
238 74 83 198 118 546 152 220 22 266 24 455 21 138 -3 174 -7 220 -24z
m-1283 -496 c52 -23 145 -102 164 -137 16 -30 -66 -61 -143 -56 -69 5 -105 27
-132 82 -17 34 -17 44 -6 93 11 52 13 54 38 48 15 -3 50 -17 79 -30z m1284
-40 c52 -19 114 -76 136 -125 8 -19 23 -82 33 -139 l18 -104 -58 -70 c-33 -38
-78 -109 -101 -156 -23 -47 -65 -116 -93 -153 -47 -62 -57 -70 -155 -116 -58
-28 -142 -59 -186 -71 -66 -17 -252 -40 -331 -41 -18 -1 -17 -2 4 -20 13 -11
42 -25 63 -31 35 -11 39 -15 39 -46 0 -32 -1 -33 -41 -33 -39 0 -69 -17 -69
-40 0 -25 -147 40 -188 83 -55 59 -102 128 -102 152 0 30 15 35 133 42 54 3
93 9 86 13 -23 15 3 30 54 31 29 1 44 3 35 6 -10 2 -18 11 -18 19 0 10 14 14
53 14 47 1 50 2 29 13 -17 10 -20 15 -10 25 7 7 24 12 39 12 30 0 51 20 22 20
-16 1 -15 3 6 20 13 11 33 20 45 20 17 0 18 2 6 10 -8 5 -12 11 -10 12 3 2 18
12 33 21 15 10 25 22 22 27 -3 5 12 18 35 30 45 23 52 35 15 26 -14 -4 -25 -3
-25 0 0 4 22 36 49 73 42 57 82 141 105 217 7 22 6 22 -66 9 -40 -8 -132 -18
-203 -24 -155 -12 -299 -50 -330 -86 -11 -12 -32 -26 -47 -29 -28 -6 -28 -6
-28 45 0 41 8 66 40 123 22 40 48 80 58 89 13 12 84 28 223 52 112 19 274 48
359 64 178 34 259 37 321 16z m-1436 -271 c33 -33 89 -77 125 -97 36 -20 61
-37 55 -37 -5 0 -28 11 -50 25 -45 27 -71 33 -40 9 45 -36 161 -84 217 -90 32
-4 58 -8 58 -11 0 -2 -8 -16 -17 -31 -11 -17 6 -5 43 29 106 100 188 129 364
129 63 0 144 7 180 14 36 8 66 13 67 12 6 -6 -69 -120 -122 -185 -140 -174
-355 -295 -579 -327 l-49 -7 6 49 c6 43 5 47 -8 31 -7 -11 -17 -37 -20 -58 -7
-43 5 -69 33 -69 13 0 12 3 -4 15 -14 11 -15 14 -4 15 28 0 115 -76 146 -128
69 -114 50 -235 -46 -300 -68 -46 -193 -18 -289 64 -23 20 -44 34 -47 31 -7
-7 101 -102 163 -144 l53 -36 -40 -28 c-44 -32 -84 -89 -106 -152 -20 -55 -10
-58 14 -4 30 69 119 157 158 157 3 0 -19 -27 -49 -60 -64 -68 -100 -137 -124
-234 -14 -58 -18 -65 -25 -46 -15 41 -41 91 -44 87 -3 -2 3 -24 12 -48 9 -24
17 -73 17 -109 4 -151 -102 -257 -280 -279 -89 -11 -178 2 -257 38 -61 27 -65
31 -86 87 -47 122 -24 279 55 372 20 22 42 57 50 76 9 20 19 35 23 34 4 -1 19
5 35 12 23 11 31 11 52 0 14 -7 25 -19 25 -27 0 -23 20 -14 70 33 61 57 147
223 155 299 l6 50 -29 -60 c-36 -75 -83 -130 -134 -156 -81 -41 -314 -35 -369
10 -20 16 -21 21 -10 53 6 19 29 59 51 88 52 70 50 77 -5 17 -81 -88 -104
-203 -58 -289 16 -30 18 -31 21 -10 4 27 10 28 28 5 21 -28 16 -85 -10 -144
-49 -106 -58 -266 -21 -371 8 -23 12 -45 9 -48 -3 -3 -36 -4 -72 -4 -175 4
-295 113 -296 269 -1 124 70 237 186 295 34 16 54 30 45 30 -10 0 -17 1 -17 3
0 14 70 177 102 239 45 88 95 138 136 138 l27 0 -25 -20 c-14 -11 -29 -20 -34
-20 -5 0 -7 -3 -3 -6 3 -4 34 8 68 25 33 18 63 30 66 27 3 -3 -8 -38 -24 -78
-17 -40 -34 -89 -38 -108 -3 -19 -9 -43 -11 -52 -3 -10 -1 -18 5 -18 6 0 11 6
11 14 0 27 49 158 71 191 29 41 68 65 108 65 34 0 127 -29 281 -88 58 -22 128
-43 155 -46 l50 -6 -65 24 c-61 23 -63 24 -29 25 48 1 97 18 136 47 40 31 43
30 43 -6 0 -16 5 -30 10 -30 11 0 14 122 4 133 -3 3 -20 -10 -36 -29 -46 -53
-101 -77 -183 -80 -38 -1 -56 0 -40 2 62 10 133 34 146 50 12 15 12 16 -6 11
-60 -19 -203 -33 -288 -28 -69 4 115 67 218 75 51 3 73 10 82 23 24 32 35 97
30 168 -3 39 -3 83 0 98 6 29 58 87 79 87 7 0 16 5 19 11 5 7 -4 8 -27 4 -24
-5 -53 1 -101 19 -64 24 -68 24 -111 10 -63 -22 -171 -124 -276 -264 -49 -64
-102 -129 -120 -143 -43 -37 -97 -36 -175 3 -54 27 -57 29 -24 24 20 -3 39 -1
43 4 3 5 -11 12 -32 15 -20 4 -71 27 -112 52 -89 56 -123 64 -150 40 -19 -17
-22 -16 -75 24 -31 23 -69 61 -86 84 -27 36 -30 49 -27 92 5 64 42 137 90 181
59 53 74 53 181 -5 51 -28 118 -57 148 -65 36 -9 53 -18 50 -28 -33 -108 -35
-192 -8 -283 11 -38 12 -33 17 80 9 166 19 185 129 238 103 48 193 136 261
251 38 66 46 74 55 59 6 -10 37 -45 70 -79z m2195 -33 c0 -4 -26 -12 -57 -20
-32 -7 -80 -23 -108 -36 -82 -39 -91 -39 -89 -8 1 24 7 29 45 39 85 23 209 37
209 25z m-92 -105 c-8 -6 -34 -27 -59 -47 -38 -30 -89 -59 -105 -59 -2 0 -3
16 -2 36 3 39 6 41 133 81 35 11 54 5 33 -11z m-418 -61 c10 -22 24 -68 30
-101 17 -86 0 -119 -94 -182 -188 -126 -467 -226 -666 -239 -52 -3 -92 -3 -88
1 3 4 39 14 80 22 111 23 304 90 388 135 97 53 221 142 270 195 46 50 56 90
43 180 -9 60 -8 65 5 48 8 -10 22 -37 32 -59z m-80 -89 c-11 -33 -78 -121 -87
-112 -5 5 28 73 66 134 28 46 40 35 21 -22z m-2696 -63 c25 -21 52 -55 61 -75
8 -20 24 -42 35 -48 11 -6 20 -18 20 -27 0 -14 -11 -15 -82 -9 -46 3 -120 12
-166 18 -45 6 -85 8 -89 4 -11 -11 116 -133 182 -175 75 -48 157 -66 263 -58
42 3 87 9 100 13 19 5 22 3 22 -22 l0 -29 21 33 c12 17 23 32 26 32 16 0 45
-25 58 -49 13 -27 13 -31 -8 -57 -12 -15 -15 -24 -8 -19 8 4 -3 -17 -25 -48
-22 -32 -40 -50 -42 -42 -2 8 2 24 8 36 8 15 9 19 1 15 -20 -13 -40 -62 -46
-117 -4 -30 -11 -78 -17 -108 -10 -54 -10 -54 -27 -33 -10 14 -33 25 -61 30
-39 6 -45 11 -48 34 -4 33 -20 40 -65 27 -28 -8 -44 -5 -93 17 -32 14 -61 28
-63 30 -3 3 20 30 50 60 l54 56 -45 -22 c-25 -12 -52 -28 -60 -35 -53 -45
-385 -65 -503 -31 -66 19 -77 37 -76 114 l1 47 11 -32 c18 -50 49 -73 123 -95
82 -23 266 -34 344 -20 47 8 50 10 19 11 -20 0 -59 11 -87 22 -42 17 -62 35
-105 93 -29 39 -73 109 -97 156 -27 51 -67 109 -102 146 -32 33 -58 66 -58 72
0 13 -9 11 250 73 247 60 264 60 324 12z m-926 -69 c36 -5 42 -10 42 -31 0
-13 -3 -22 -7 -20 -46 24 -107 47 -125 48 -13 0 -32 5 -43 10 -20 9 34 6 133
-7z m1970 -78 c5 -26 -16 -45 -28 -26 -5 8 -10 23 -10 33 0 24 34 18 38 -7z
m-1983 1 c46 -12 50 -16 53 -47 l3 -33 -29 19 c-47 31 -98 74 -87 74 6 0 33
-6 60 -13z m370 -51 c29 -30 68 -85 89 -123 20 -37 54 -93 76 -123 41 -57 49
-102 19 -108 -13 -2 -187 103 -226 138 -23 20 -14 29 23 23 49 -8 42 11 -17
52 -43 31 -44 33 -47 90 -4 69 3 105 20 105 7 0 35 -24 63 -54z m1802 32 c-3
-8 -6 -5 -6 6 -1 11 2 17 5 13 3 -3 4 -12 1 -19z m-125 -73 c3 -14 1 -25 -3
-25 -5 0 -9 11 -9 25 0 14 2 25 4 25 2 0 6 -11 8 -25z m-703 -9 c21 -11 21
-14 6 -20 -11 -4 -15 -13 -12 -26 7 -28 -5 -25 -37 9 -42 44 -14 68 43 37z
m838 -18 c-3 -7 -5 -2 -5 12 0 14 2 19 5 13 2 -7 2 -19 0 -25z m-74 -65 c-13
-2 -35 -2 -50 0 -16 2 -5 4 22 4 28 0 40 -2 28 -4z m1077 -125 c-52 -49 -106
-88 -122 -88 -22 0 -52 45 -44 65 3 9 19 15 38 16 18 0 51 6 73 14 22 7 49 13
59 14 18 1 18 -1 -4 -21z m-237 -70 c51 -111 58 -131 49 -140 -22 -22 -49 11
-82 96 -9 24 -5 96 6 96 2 0 14 -24 27 -52z m-270 -18 c76 -15 74 -32 -7 -61
l-38 -14 -34 39 c-19 22 -34 48 -34 58 0 17 2 17 28 4 15 -7 53 -19 85 -26z
m127 -41 c0 -6 14 -40 31 -76 31 -64 32 -87 5 -64 -39 32 -75 151 -46 151 6 0
10 -5 10 -11z m-239 -16 c16 -10 29 -20 29 -24 0 -8 -50 -42 -55 -37 -7 7 -17
78 -10 78 4 0 20 -8 36 -17z m-1676 -87 c68 -31 82 -49 65 -81 -20 -38 -49
-31 -125 32 -66 54 -68 58 -45 64 41 11 53 10 105 -15z m1833 -59 c38 -35 55
-76 49 -119 -6 -43 -52 -139 -73 -151 -8 -4 -14 -13 -14 -18 0 -10 -145 -159
-181 -187 -34 -26 -4 163 31 198 33 33 80 133 80 173 0 9 -11 34 -25 55 -13
20 -26 48 -27 61 -2 19 2 24 26 27 15 1 31 5 33 8 9 8 75 -23 101 -47z m-1665
-24 c10 -52 -47 -163 -71 -138 -7 7 51 174 59 169 4 -2 9 -16 12 -31z m1486
-7 c-2 -2 -14 0 -26 5 -15 6 -21 13 -16 24 5 15 8 14 26 -4 12 -11 19 -22 16
-25z m-142 -291 c-6 -298 -31 -446 -119 -710 -17 -49 -32 -92 -34 -94 -2 -2
-10 1 -17 8 -20 16 -43 4 -67 -35 -26 -42 -38 -80 -50 -169 -12 -81 -28 -101
-115 -150 -61 -35 -285 -128 -291 -122 -2 2 0 18 5 35 5 18 7 32 4 32 -3 0
-22 -13 -42 -29 -56 -44 -159 -97 -235 -120 -86 -27 -90 -26 -70 4 9 14 15 28
12 30 -3 3 -56 -19 -119 -49 -133 -63 -212 -86 -299 -86 l-62 0 35 40 c44 48
80 117 98 190 15 58 18 411 6 540 -5 50 -4 59 4 40 16 -38 38 -59 104 -95 152
-85 332 -127 535 -128 147 0 221 11 345 50 65 20 88 33 122 69 80 83 162 288
198 493 21 120 38 391 30 473 -7 79 5 114 18 53 5 -22 6 -143 4 -270z m-787
251 c0 -2 -8 -10 -17 -17 -16 -13 -17 -12 -4 4 13 16 21 21 21 13z m718 -103
l-3 -38 -13 53 c-10 43 -10 58 0 75 12 21 13 20 16 -15 2 -21 2 -55 0 -75z
m-53 50 c-10 -42 -25 -52 -25 -17 0 32 6 44 23 44 5 0 6 -12 2 -27z m185 -62
c0 -60 -4 -84 -17 -100 -17 -21 -18 -19 -18 78 0 90 2 101 18 101 15 0 17 -10
17 -79z m-151 -58 c13 -85 14 -275 1 -228 -18 64 -41 262 -35 288 11 41 22 22
34 -60z m-80 -43 c-15 -86 -20 -90 -35 -26 -13 54 -13 61 7 105 l22 46 8 -35
c4 -19 3 -60 -2 -90z m54 -260 c1 -109 -3 -168 -13 -200 l-14 -45 -7 110 c-4
61 -12 137 -18 170 -9 49 -8 75 6 145 l17 85 14 -55 c9 -35 15 -112 15 -210z
m-108 178 c9 -53 7 -152 -4 -198 l-8 -35 -7 30 c-4 17 -14 49 -21 71 -11 35
-11 51 3 108 9 36 19 66 23 66 4 0 11 -19 14 -42z m277 -81 c-3 -54 -8 -70
-24 -78 -18 -10 -19 -8 -12 53 3 35 13 71 22 81 8 9 16 16 17 15 1 -2 0 -34
-3 -71z m-224 -217 c10 -106 3 -202 -17 -237 -8 -14 -10 -5 -11 42 0 33 -5 87
-10 120 -11 62 5 204 21 188 4 -4 12 -55 17 -113z m-92 65 c8 -47 0 -142 -16
-180 l-12 -30 -17 70 c-17 67 -17 72 1 107 10 21 18 44 18 53 0 29 19 15 26
-20z m311 18 c-3 -10 -11 -62 -18 -115 -7 -54 -15 -98 -18 -98 -3 0 -14 7 -23
14 -16 12 -17 19 -2 102 9 56 21 94 31 102 23 17 35 15 30 -5z m-1357 -124 c0
-89 -5 -104 -34 -93 -13 5 -16 25 -16 117 l0 110 25 -23 c23 -22 25 -31 25
-111z m121 -51 c5 -62 -2 -98 -22 -98 -5 0 -25 7 -44 14 l-35 15 0 68 c0 37 3
78 6 90 l6 23 42 -25 c40 -24 41 -26 47 -87z m134 28 l51 -7 -4 -67 c-2 -37
-5 -73 -7 -79 -5 -16 -42 -16 -101 -2 l-44 11 0 68 c0 87 5 101 33 91 12 -5
45 -12 72 -15z m700 -36 c33 -99 6 -143 -92 -156 l-53 -7 0 82 c0 58 4 81 13
81 6 0 32 11 57 25 25 13 48 24 52 24 3 1 14 -21 23 -49z m-514 4 c74 -18 79
-26 79 -116 0 -48 -19 -57 -93 -47 -29 4 -60 8 -69 8 -12 1 -18 9 -18 23 0 36
22 148 29 148 3 0 36 -7 72 -16z m648 -109 c1 -73 -20 -137 -52 -164 -16 -12
-17 -8 -17 50 -1 81 51 258 61 212 4 -16 7 -59 8 -98z m-331 22 c4 -81 -3 -87
-104 -87 l-84 0 0 59 c0 33 -3 67 -6 76 -6 14 5 15 92 13 l99 -3 3 -58z m-775
25 c16 -17 37 -100 37 -143 0 -31 -30 -22 -45 14 -17 42 -30 147 -18 147 6 0
17 -8 26 -18z m1315 -25 c6 -7 9 -23 5 -35 -4 -18 -9 -20 -24 -11 -19 10 -26
39 -12 52 10 10 19 8 31 -6z m-1217 -26 c40 -18 44 -24 56 -73 24 -103 18
-112 -56 -82 -37 15 -40 19 -46 62 -3 26 -8 62 -11 80 -6 37 -1 39 57 13z
m1297 -38 c46 -34 276 -218 316 -252 197 -170 482 -459 474 -481 -7 -21 -460
215 -743 388 -170 103 -163 98 -158 126 3 15 9 28 13 31 4 3 36 -14 71 -37
107 -69 408 -248 491 -291 43 -22 81 -37 85 -33 12 12 -144 154 -377 344 -112
92 -211 172 -218 178 -9 7 -12 18 -8 32 9 28 10 28 54 -5z m-1143 -11 l70 -18
12 -65 c7 -35 10 -70 8 -76 -5 -16 -37 -16 -87 -3 -51 14 -64 31 -73 87 -3 26
-9 58 -12 71 -6 26 -7 26 82 4z m225 -40 c61 -7 65 -9 68 -34 5 -41 -16 -106
-38 -118 -28 -15 -118 -2 -129 19 -5 9 -12 46 -16 83 l-7 68 28 -6 c16 -3 58
-8 94 -12z m535 -1 c5 -17 2 -43 -12 -94 -7 -26 -50 -44 -133 -56 -41 -5 -75
-9 -76 -8 -1 1 5 36 14 78 l16 76 75 10 c42 6 84 11 93 11 9 1 19 -7 23 -17z
m-225 -32 c0 -43 -23 -110 -43 -124 -20 -14 -176 -22 -188 -10 -3 2 1 38 9 80
l15 75 103 0 c98 0 104 -1 104 -21z m490 -93 c0 -6 -3 -21 -6 -33 -5 -18 -10
-20 -23 -13 -41 24 -42 25 -30 58 10 30 11 31 35 16 13 -9 24 -21 24 -28z
m-1340 -56 c0 -26 -20 -50 -132 -159 -75 -73 -126 -131 -120 -135 6 -3 17 0
25 8 8 8 17 12 21 9 3 -4 20 3 36 15 16 12 34 22 40 22 5 0 10 3 10 8 0 4 19
16 43 27 23 11 48 26 55 32 23 22 32 14 32 -25 0 -35 -4 -41 -42 -63 -24 -13
-52 -29 -63 -36 -11 -6 -51 -28 -90 -48 -38 -20 -88 -47 -110 -60 -56 -32
-175 -91 -202 -99 -13 -4 -23 -3 -23 2 0 4 10 18 23 29 12 11 29 30 37 41 70
92 430 462 450 462 5 0 10 -14 10 -30z"/>
<path d="M2935 4716 c17 -14 35 -25 40 -25 11 0 -20 25 -50 41 -11 5 -6 -2 10
-16z"/>
<path d="M2835 4664 c-71 -37 -124 -120 -205 -324 -73 -187 -114 -236 -185
-227 l-40 6 24 -20 c13 -11 38 -19 59 -19 52 0 103 59 191 222 126 233 199
304 311 302 31 0 69 -8 88 -18 46 -24 51 -14 10 17 -89 68 -192 93 -253 61z"/>
<path d="M3590 4643 c-211 -24 -312 -102 -348 -268 -21 -92 -20 -110 6 -113
32 -5 118 15 183 41 48 20 223 136 216 143 -1 2 -34 -13 -72 -32 -115 -58
-193 -35 -134 39 11 15 46 41 77 58 52 28 54 29 22 24 -19 -3 -61 -18 -92 -33
-32 -16 -58 -25 -58 -21 0 4 23 28 51 53 50 45 85 60 227 96 23 6 42 13 42 15
0 5 -65 4 -120 -2z"/>
<path d="M3836 3795 c4 -8 11 -15 16 -15 6 0 5 6 -2 15 -7 8 -14 15 -16 15 -2
0 -1 -7 2 -15z"/>
<path d="M1957 2450 c7 -175 -8 -304 -47 -420 -15 -47 -27 -87 -25 -88 2 -2
48 10 102 27 120 37 247 97 330 157 59 42 62 43 53 19 -6 -15 -22 -47 -36 -71
-14 -24 -23 -44 -19 -44 4 0 43 19 87 42 85 44 155 94 225 161 l41 39 -19 -58
c-10 -31 -17 -59 -15 -62 10 -9 155 69 199 109 27 23 66 69 89 102 52 77 109
177 100 177 -4 -1 -25 -26 -47 -57 -53 -74 -160 -189 -209 -225 -45 -32 -72
-37 -61 -10 12 31 27 124 20 130 -3 3 -31 -19 -63 -49 -93 -90 -204 -170 -218
-157 -2 3 9 35 26 73 16 39 27 71 26 73 -2 1 -35 -21 -74 -50 -134 -101 -331
-206 -418 -224 l-30 -6 9 104 c6 68 6 152 -2 248 -16 204 -31 242 -24 60z"/>
</g>
</svg>
